# xmcd
#
# Track frame offsets: 
#        150
#        19974
#        40511
#        57083
#        75498
#        92766
#        110137
#        126762
#        143286
#        160375
#        179156
#
# Disc length: 2622 seconds
#
# Revision: 0
# Processed by: cddbd v1.5.2PL0 Copyright (c) Steve Scherf et al.
# Submitted via: ExactAudioCopy v0.90b4
#
DISCID=8b0a3c0b
DTITLE=Elvis Martínez - La Luz De Mis Ojos
DYEAR=2007
DGENRE=Latin
TTITLE0=Amar O Morir
TTITLE1=Aventura
TTITLE2=Agua En El Verano
TTITLE3=Donde Diablos
TTITLE4=Estúpida Mentira
TTITLE5=La Luz De Mis Ojos
TTITLE6=Laudano
TTITLE7=Lento Y Suave
TTITLE8=I Love You
TTITLE9=Todo
TTITLE10=Ya No Mas
EXTD=
EXTT0=
EXTT1=
EXTT2=
EXTT3=
EXTT4=
EXTT5=
EXTT6=
EXTT7=
EXTT8=
EXTT9=
EXTT10=
PLAYORDER=
